<svg width="500" height="501" viewBox="0 0 500 501" fill="none" xmlns="http://www.w3.org/2000/svg">
<circle cx="250" cy="250.058" r="250" fill="#101013"/>
<g clip-path="url(#clip0_3727_411)">
<path d="M148.637 148.635C83.7564 213.516 83.7564 318.655 148.637 383.53L165.079 399.972L200.318 364.722L183.876 348.28C129.397 293.806 129.397 205.439 183.876 150.96C238.354 96.5161 326.722 96.5161 381.195 150.995L383.687 153.487C382.326 153.487 380.964 153.718 379.672 154.18L378.841 153.355C329.543 104.056 249.616 104.056 200.318 153.355C151.026 202.653 151.026 282.574 200.318 331.872L216.76 348.314L252.01 313.07L235.568 296.628C196.631 257.697 196.631 194.61 235.568 155.68C274.499 116.749 337.579 116.749 376.51 155.68L376.649 155.812C376.216 156.147 375.749 156.476 375.351 156.874C374.947 157.278 374.618 157.739 374.289 158.172L374.156 158.039C340.435 124.324 285.726 124.324 252.01 158.039C218.289 191.755 218.289 246.464 252.01 280.185L268.453 296.628L303.703 261.378L287.254 244.935C263.901 221.587 263.901 183.718 287.254 160.358C310.608 137.01 348.478 137.01 371.831 160.358L372.662 161.195C372.199 162.485 371.963 163.845 371.964 165.216L369.472 162.724C365.154 158.404 360.028 154.977 354.385 152.639C348.743 150.301 342.695 149.098 336.587 149.098C330.479 149.098 324.432 150.301 318.789 152.639C313.147 154.977 308.02 158.404 303.703 162.724C299.383 167.042 295.957 172.168 293.62 177.811C291.282 183.453 290.079 189.501 290.079 195.608C290.079 201.716 291.282 207.763 293.62 213.406C295.957 219.048 299.383 224.175 303.703 228.493L320.145 244.935L355.383 209.697L338.941 193.255C337.089 191.403 335.621 189.204 334.619 186.784C333.617 184.365 333.101 181.771 333.101 179.152C333.102 176.534 333.618 173.94 334.62 171.521C335.623 169.102 337.092 166.903 338.944 165.052C340.796 163.2 342.994 161.731 345.414 160.729C347.834 159.727 350.427 159.212 353.046 159.212C355.665 159.212 358.258 159.728 360.677 160.731C363.097 161.733 365.295 163.203 367.147 165.055L375.351 173.253C376.429 174.334 377.71 175.193 379.121 175.779C380.532 176.364 382.044 176.666 383.572 176.666C385.099 176.666 386.612 176.364 388.023 175.779C389.433 175.193 390.715 174.334 391.793 173.253C392.875 172.174 393.733 170.893 394.319 169.482C394.905 168.071 395.206 166.559 395.206 165.031C395.206 163.504 394.905 161.991 394.319 160.581C393.733 159.17 392.875 157.889 391.793 156.81L383.589 148.606C318.679 83.7891 213.518 83.7891 148.637 148.635Z" fill="#1FB8CD"/>
<path d="M148.637 148.635C83.7564 213.516 83.7564 318.655 148.637 383.53L165.079 399.972L200.318 364.722L183.876 348.28C129.397 293.806 129.397 205.439 183.876 150.96C238.354 96.5161 326.722 96.5161 381.195 150.995L383.687 153.487C382.326 153.487 380.964 153.718 379.672 154.18L378.841 153.355C329.543 104.056 249.616 104.056 200.318 153.355C151.026 202.653 151.026 282.574 200.318 331.872L216.76 348.314L252.01 313.07L235.568 296.628C196.631 257.697 196.631 194.61 235.568 155.68C274.499 116.749 337.579 116.749 376.51 155.68L376.649 155.812C376.216 156.147 375.749 156.476 375.351 156.874C374.947 157.278 374.618 157.739 374.289 158.172L374.156 158.039C340.435 124.324 285.726 124.324 252.01 158.039C218.289 191.755 218.289 246.464 252.01 280.185L268.453 296.628L303.703 261.378L287.254 244.935C263.901 221.587 263.901 183.718 287.254 160.358C310.608 137.01 348.478 137.01 371.831 160.358L372.662 161.195C372.199 162.485 371.963 163.845 371.964 165.216L369.472 162.724C365.154 158.404 360.028 154.977 354.385 152.639C348.743 150.301 342.695 149.098 336.587 149.098C330.479 149.098 324.432 150.301 318.789 152.639C313.147 154.977 308.02 158.404 303.703 162.724C299.383 167.042 295.957 172.168 293.62 177.811C291.282 183.453 290.079 189.501 290.079 195.608C290.079 201.716 291.282 207.763 293.62 213.406C295.957 219.048 299.383 224.175 303.703 228.493L320.145 244.935L355.383 209.697L338.941 193.255C337.089 191.403 335.621 189.204 334.619 186.784C333.617 184.365 333.101 181.771 333.101 179.152C333.102 176.534 333.618 173.94 334.62 171.521C335.623 169.102 337.092 166.903 338.944 165.052C340.796 163.2 342.994 161.731 345.414 160.729C347.834 159.727 350.427 159.212 353.046 159.212C355.665 159.212 358.258 159.728 360.677 160.731C363.097 161.733 365.295 163.203 367.147 165.055L375.351 173.253C376.429 174.334 377.71 175.193 379.121 175.779C380.532 176.364 382.044 176.666 383.572 176.666C385.099 176.666 386.612 176.364 388.023 175.779C389.433 175.193 390.715 174.334 391.793 173.253C392.875 172.174 393.733 170.893 394.319 169.482C394.905 168.071 395.206 166.559 395.206 165.031C395.206 163.504 394.905 161.991 394.319 160.581C393.733 159.17 392.875 157.889 391.793 156.81L383.589 148.606C318.679 83.7891 213.518 83.7891 148.637 148.635Z" fill="url(#paint0_linear_3727_411)"/>
<path d="M148.637 148.635C83.7564 213.516 83.7564 318.655 148.637 383.53L165.079 399.972L200.318 364.722L183.876 348.28C129.397 293.806 129.397 205.439 183.876 150.96C238.354 96.5161 326.722 96.5161 381.195 150.995L383.687 153.487C382.326 153.487 380.964 153.718 379.672 154.18L378.841 153.355C329.543 104.056 249.616 104.056 200.318 153.355C151.026 202.653 151.026 282.574 200.318 331.872L216.76 348.314L252.01 313.07L235.568 296.628C196.631 257.697 196.631 194.61 235.568 155.68C274.499 116.749 337.579 116.749 376.51 155.68L376.649 155.812C376.216 156.147 375.749 156.476 375.351 156.874C374.947 157.278 374.618 157.739 374.289 158.172L374.156 158.039C340.435 124.324 285.726 124.324 252.01 158.039C218.289 191.755 218.289 246.464 252.01 280.185L268.453 296.628L303.703 261.378L287.254 244.935C263.901 221.587 263.901 183.718 287.254 160.358C310.608 137.01 348.478 137.01 371.831 160.358L372.662 161.195C372.199 162.485 371.963 163.845 371.964 165.216L369.472 162.724C365.154 158.404 360.028 154.977 354.385 152.639C348.743 150.301 342.695 149.098 336.587 149.098C330.479 149.098 324.432 150.301 318.789 152.639C313.147 154.977 308.02 158.404 303.703 162.724C299.383 167.042 295.957 172.168 293.62 177.811C291.282 183.453 290.079 189.501 290.079 195.608C290.079 201.716 291.282 207.763 293.62 213.406C295.957 219.048 299.383 224.175 303.703 228.493L320.145 244.935L355.383 209.697L338.941 193.255C337.089 191.403 335.621 189.204 334.619 186.784C333.617 184.365 333.101 181.771 333.101 179.152C333.102 176.534 333.618 173.94 334.62 171.521C335.623 169.102 337.092 166.903 338.944 165.052C340.796 163.2 342.994 161.731 345.414 160.729C347.834 159.727 350.427 159.212 353.046 159.212C355.665 159.212 358.258 159.728 360.677 160.731C363.097 161.733 365.295 163.203 367.147 165.055L375.351 173.253C376.429 174.334 377.71 175.193 379.121 175.779C380.532 176.364 382.044 176.666 383.572 176.666C385.099 176.666 386.612 176.364 388.023 175.779C389.433 175.193 390.715 174.334 391.793 173.253C392.875 172.174 393.733 170.893 394.319 169.482C394.905 168.071 395.206 166.559 395.206 165.031C395.206 163.504 394.905 161.991 394.319 160.581C393.733 159.17 392.875 157.889 391.793 156.81L383.589 148.606C318.679 83.7891 213.518 83.7891 148.637 148.635Z" fill="url(#paint1_radial_3727_411)"/>
</g>
<defs>
<linearGradient id="paint0_linear_3727_411" x1="246.662" y1="100.001" x2="284.139" y2="871.583" gradientUnits="userSpaceOnUse">
<stop stop-color="#FBFAF4"/>
<stop offset="1" stop-color="#1FB8CD" stop-opacity="0"/>
</linearGradient>
<radialGradient id="paint1_radial_3727_411" cx="0" cy="0" r="1" gradientUnits="userSpaceOnUse" gradientTransform="translate(317.779 166.564) rotate(136.373) scale(114.016 114.117)">
<stop stop-color="#FCFCF9"/>
<stop offset="1" stop-color="white" stop-opacity="0"/>
</radialGradient>
<clipPath id="clip0_3727_411">
<rect width="300" height="300" fill="white" transform="translate(100 100)"/>
</clipPath>
</defs>
</svg>
